Coordinates
version=1
nRows=20
nColumns=38
inDegrees=no

Units are S.I. units (second, meters, Newtons, ...)
If the header above contains a line with 'inDegrees', this indicates whether rotational values are in degrees (yes) or radians (no).

endheader
time	pelvis_tilt	pelvis_list	pelvis_rotation	pelvis_tx	pelvis_ty	pelvis_tz	hip_flexion_r	hip_adduction_r	hip_rotation_r	knee_angle_r	ankle_angle_r	subtalar_angle_r	mtp_angle_r	hip_flexion_l	hip_adduction_l	hip_rotation_l	knee_angle_l	ankle_angle_l	subtalar_angle_l	mtp_angle_l	lumbar_extension	lumbar_bending	lumbar_rotation	arm_flex_r	arm_add_r	arm_rot_r	elbow_flex_r	pro_sup_r	wrist_flex_r	wrist_dev_r	arm_flex_l	arm_add_l	arm_rot_l	elbow_flex_l	pro_sup_l	wrist_flex_l	wrist_dev_l
0	0.480699	1.48475	1.28036	0.917521	-0.861642	1.05485	0.304849	-0.00934628	-0.193899	0.359884	-0.330611	0	0	0.0854989	-0.173025	-0.184789	0.778633	-0.263632	0	0	-0.376034	-0.00825028	-0.0914416	0.13747	-0.413024	0.371814	1.21355	1.1605	0	0	-0.166143	-0.365077	-0.0900652	1.4325	1.5708	0	0
0.01	0.419398	1.48728	1.34506	0.918076	-0.85828	1.05554	0.293198	-0.0134149	-0.199594	0.342783	-0.313687	0	0	0.101569	-0.169591	-0.173349	0.806566	-0.265725	0	0	-0.379145	-0.0143992	-0.0931318	0.126911	-0.408855	0.364595	1.21754	1.16422	0	0	-0.16944	-0.369083	-0.0893808	1.4324	1.5708	0	0
0.02	0.367729	1.4906	1.4006	0.918352	-0.855044	1.0566	0.284603	-0.0194089	-0.206297	0.343766	-0.332311	0	0	0.115801	-0.166879	-0.165349	0.83266	-0.265686	0	0	-0.383807	-0.0192293	-0.0939511	0.116941	-0.405919	0.357938	1.2208	1.16763	0	0	-0.170236	-0.372792	-0.0863233	1.4306	1.5708	0	0
0.03	0.152033	1.48498	1.61998	0.918081	-0.851942	1.05487	0.276582	-0.00409086	-0.0496956	0.317842	-0.305354	0	0	0.140172	-0.147641	-0.156686	0.860885	-0.257801	0	0	-0.374256	-0.0368537	-0.0979729	0.0994991	-0.401726	0.34696	1.22702	1.17389	0	0	-0.175035	-0.378694	-0.0821439	1.43121	1.5708	0	0
0.04	0.255039	1.49771	1.52265	0.918341	-0.848911	1.05885	0.259807	-0.0290029	-0.221757	0.324305	-0.330003	0	0	0.141269	-0.158742	-0.147391	0.878422	-0.256576	0	0	-0.394887	-0.0269949	-0.0938943	0.0936545	-0.400666	0.338393	1.22969	1.17882	0	0	-0.168619	-0.378967	-0.0774129	1.42621	1.5708	0	0
0.05	0.0403636	1.48882	1.73976	0.918025	-0.845764	1.05703	0.253034	-0.0154355	-0.0723014	0.297254	-0.299169	0	0	0.164473	-0.138701	-0.14205	0.899658	-0.23823	0	0	-0.384543	-0.0441254	-0.0962513	0.0748845	-0.396031	0.325052	1.23653	1.18901	0	0	-0.172836	-0.385184	-0.0713755	1.42631	1.5708	0	0
0.06	-0.0182364	1.48918	1.79918	0.918179	-0.842537	1.058	0.243039	-0.0199774	-0.0784162	0.287257	-0.299911	0	0	0.175215	-0.134496	-0.143346	0.911893	-0.226072	0	0	-0.388081	-0.0488853	-0.0937788	0.0638273	-0.393732	0.316833	1.24012	1.19483	0	0	-0.172947	-0.387611	-0.0670663	1.4237	1.5708	0	0
0.07	-0.0806381	1.48916	1.86266	0.918221	-0.83953	1.05901	0.233373	-0.0249599	-0.0846934	0.27759	-0.300418	0	0	0.185847	-0.129414	-0.14531	0.920225	-0.215123	0	0	-0.391497	-0.0536786	-0.0919373	0.053998	-0.391492	0.309683	1.24277	1.20001	0	0	-0.173153	-0.389117	-0.0639773	1.42081	1.5708	0	0
0.08	-0.146304	1.48836	1.92946	0.918205	-0.836646	1.06003	0.224205	-0.0303171	-0.0906393	0.267971	-0.300132	0	0	0.196413	-0.122869	-0.14563	0.923984	-0.20523	0	0	-0.394911	-0.0586791	-0.0910343	0.0453857	-0.389099	0.303562	1.24484	1.20529	0	0	-0.17411	-0.390247	-0.0622723	1.41822	1.5708	0	0
0.09	-0.218587	1.4874	2.00228	0.918233	-0.833813	1.06111	0.214792	-0.0359761	-0.0957775	0.258692	-0.297809	0	0	0.205652	-0.114989	-0.144968	0.922734	-0.197574	0	0	-0.398655	-0.0642421	-0.0909666	0.0385325	-0.386781	0.299632	1.246	1.20958	0	0	-0.174872	-0.391963	-0.0603976	1.41536	1.5708	0	0
0.1	-0.290357	1.48514	2.07426	0.918213	-0.831002	1.06209	0.206633	-0.0421109	-0.100014	0.250343	-0.29137	0	0	0.215228	-0.106573	-0.145443	0.917301	-0.192313	0	0	-0.401523	-0.0702553	-0.0917085	0.0325919	-0.384164	0.296589	1.24639	1.2127	0	0	-0.176781	-0.392943	-0.060236	1.41265	1.5708	0	0
0.11	-0.360823	1.48127	2.14532	0.918127	-0.828208	1.06282	0.198106	-0.0487046	-0.103098	0.233739	-0.27054	0	0	0.225545	-0.0976179	-0.14742	0.908315	-0.188797	0	0	-0.403087	-0.0768575	-0.0935356	0.0267649	-0.380898	0.293597	1.24642	1.21508	0	0	-0.179802	-0.394236	-0.0605314	1.41058	1.5708	0	0
0.12	-0.421669	1.47863	2.20695	0.91796	-0.825591	1.06391	0.192092	-0.0550243	-0.107406	0.234496	-0.304884	0	0	0.233963	-0.0898475	-0.149243	0.894614	-0.187604	0	0	-0.406129	-0.0818937	-0.0947936	0.0217591	-0.378161	0.29088	1.24602	1.21717	0	0	-0.181339	-0.394847	-0.0601802	1.40752	1.5708	0	0
0.13	-0.479556	1.4754	2.26629	0.917743	-0.823045	1.06478	0.185136	-0.0610608	-0.110323	0.228408	-0.304544	0	0	0.242401	-0.0820401	-0.150941	0.878878	-0.187824	0	0	-0.408108	-0.08692	-0.0971197	0.0170062	-0.376014	0.289958	1.24568	1.21834	0	0	-0.183696	-0.395587	-0.0603095	1.40471	1.5708	0	0
0.14	-0.528449	1.47185	2.3169	0.917441	-0.820539	1.06555	0.179212	-0.0668624	-0.11315	0.223553	-0.303965	0	0	0.250775	-0.074736	-0.153231	0.861216	-0.189509	0	0	-0.409804	-0.0913111	-0.100345	0.0128606	-0.374145	0.289958	1.24539	1.21975	0	0	-0.186968	-0.396136	-0.0611929	1.40236	1.5708	0	0
0.15	-0.569542	1.46818	2.35869	0.917179	-0.817995	1.06619	0.174592	-0.0721656	-0.114524	0.220388	-0.303177	0	0	0.258525	-0.0686138	-0.158807	0.842187	-0.192191	0	0	-0.410653	-0.095442	-0.103062	0.00945156	-0.372426	0.290667	1.24428	1.22096	0	0	-0.190341	-0.396676	-0.0615251	1.39965	1.5708	0	0
0.16	-0.609947	1.46511	2.3988	0.916958	-0.815556	1.06686	0.170403	-0.0769257	-0.114262	0.218926	-0.30213	0	0	0.264689	-0.0636399	-0.167437	0.822686	-0.195133	0	0	-0.412162	-0.099066	-0.105616	0.00715523	-0.371339	0.292388	1.24316	1.22276	0	0	-0.19424	-0.396442	-0.0629999	1.39706	1.5708	0	0
0.17	-0.649261	1.46242	2.43622	0.916844	-0.813181	1.06749	0.168426	-0.0814034	-0.111739	0.221996	-0.301174	0	0	0.269573	-0.0598346	-0.179787	0.80345	-0.196628	0	0	-0.414173	-0.102591	-0.107214	0.00532326	-0.370776	0.294338	1.24259	1.22524	0	0	-0.199077	-0.395354	-0.0659389	1.39526	1.5708	0	0
0.18	-0.686409	1.46097	2.47294	0.91641	-0.810885	1.06834	0.162014	-0.0846165	-0.112116	0.21834	-0.302049	0	0	0.273247	-0.0564507	-0.191562	0.784068	-0.197098	0	0	-0.417033	-0.104079	-0.109878	0.00400504	-0.370696	0.296545	1.24162	1.22941	0	0	-0.203031	-0.394092	-0.067839	1.3925	1.5708	0	0
0.19	-0.702677	1.45684	2.49335	0.915229	-0.808139	1.06861	0.159432	-0.0904505	-0.120716	0.218317	-0.301002	0	0	0.28	-0.0512408	-0.201081	0.765296	-0.196068	0	0	-0.413771	-0.104798	-0.115145	-0.00154254	-0.369581	0.29624	1.23975	1.23585	0	0	-0.207064	-0.393521	-0.0665395	1.38668	1.5708	0	0
